<svg width="400" height="400" viewBox="0 0 400 400" fill="none" xmlns="http://www.w3.org/2000/svg">
<rect x="334.532" y="171.034" width="4.0391" height="15.4568" rx="2.01955" transform="rotate(-3.85115 334.532 171.034)" fill="#D9D9D9" stroke="black"/>
<rect x="356.103" y="182.599" width="4.0391" height="15.4568" rx="2.01955" transform="rotate(89.5961 356.103 182.599)" fill="#D9D9D9" stroke="black"/>
<rect x="356.3" y="187.604" width="4.0391" height="15.4568" rx="2.01955" transform="rotate(89.5961 356.3 187.604)" fill="#D9D9D9" stroke="black"/>
<rect x="356.3" y="192.502" width="4.0391" height="15.4568" rx="2.01955" transform="rotate(89.5961 356.3 192.502)" fill="#D9D9D9" stroke="black"/>
<rect x="314.601" y="237.125" width="4.48425" height="58.3174" rx="2.24212" transform="rotate(90.2034 314.601 237.125)" fill="#D9D9D9" stroke="black"/>
<rect x="335.442" y="179.907" width="18.3621" height="63.7895" rx="9.18105" transform="rotate(28.2379 335.442 179.907)" fill="#D9D9D9" stroke="black"/>
<rect x="139.809" y="187.939" width="13.1491" height="58.3174" rx="6.57455" fill="#D9D9D9" stroke="black"/>
<path d="M262.885 236.688C262.885 241.986 258.711 246.256 253.59 246.256C248.469 246.256 244.294 241.986 244.294 236.688C244.294 231.391 248.469 227.121 253.59 227.121C258.711 227.121 262.885 231.391 262.885 236.688Z" fill="#D9D9D9" stroke="black"/>
<path d="M262.885 236.688C262.885 241.986 258.711 246.256 253.59 246.256C248.469 246.256 244.294 241.986 244.294 236.688C244.294 231.391 248.469 227.121 253.59 227.121C258.711 227.121 262.885 231.391 262.885 236.688Z" fill="#D9D9D9" stroke="black"/>
<rect x="72.5" y="204.73" width="146.477" height="160.082" rx="19.5" fill="#BEBEBE" stroke="black"/>
<rect x="37.5707" y="299.119" width="18.3621" height="63.7895" rx="9.18105" transform="rotate(-8.8173 37.5707 299.119)" fill="#D9D9D9" stroke="black"/>
<path d="M159.488 187.167C159.488 194.235 153.518 199.999 146.111 199.999C138.704 199.999 132.734 194.235 132.734 187.167C132.734 180.098 138.704 174.334 146.111 174.334C153.518 174.334 159.488 180.098 159.488 187.167Z" fill="#D9D9D9" stroke="black"/>
<rect x="72.5" y="102.73" width="75.1874" height="84.4388" rx="19.5" fill="#BEBEBE" stroke="black"/>
<rect x="107.113" y="103" width="145.477" height="83.4388" rx="19" fill="#D9D9D9" stroke="black" stroke-width="2"/>
<rect x="120.262" y="107.442" width="128.43" height="74.5548" rx="20" fill="black"/>
<rect x="107.113" y="205.309" width="145.477" height="159.082" rx="19" fill="#D9D9D9" stroke="black" stroke-width="2"/>
<ellipse cx="159.444" cy="144.991" rx="20.1352" ry="22.312" fill="#36D145"/>
<ellipse cx="214.952" cy="144.991" rx="20.1352" ry="22.312" fill="#36D145"/>
<rect x="76.5913" y="239.276" width="4.48425" height="58.3174" rx="2.24212" transform="rotate(29.9481 76.5913 239.276)" fill="#D9D9D9" stroke="black"/>
<path d="M89.2869 238.321C89.2869 243.618 85.1123 247.889 79.9913 247.889C74.8704 247.889 70.6958 243.618 70.6958 238.321C70.6958 233.024 74.8704 228.754 79.9913 228.754C85.1123 228.754 89.2869 233.024 89.2869 238.321Z" fill="#D9D9D9" stroke="black"/>
<path d="M321.581 233.591C323.994 238.307 322.223 244.01 317.664 246.343C313.105 248.675 307.443 246.774 305.031 242.059C302.618 237.343 304.389 231.64 308.948 229.307C313.507 226.975 319.169 228.875 321.581 233.591Z" fill="#D9D9D9" stroke="black"/>
<path d="M56.0911 294.917C56.0911 300.214 51.9165 304.485 46.7955 304.485C41.6746 304.485 37.5 300.214 37.5 294.917C37.5 289.62 41.6746 285.35 46.7955 285.35C51.9165 285.35 56.0911 289.62 56.0911 294.917Z" fill="#D9D9D9" stroke="black"/>
<path d="M69.6959 360.493C69.6959 368.04 63.6977 374.142 56.3189 374.142C48.9401 374.142 42.9419 368.04 42.9419 360.493C42.9419 352.946 48.9401 346.844 56.3189 346.844C63.6977 346.844 69.6959 352.946 69.6959 360.493Z" fill="#D9D9D9" stroke="black"/>
<rect x="139.809" y="236.916" width="77.3642" height="96.9553" rx="9.5" stroke="black"/>
<circle cx="150.309" cy="247.416" r="3.5" fill="#D9D9D9" stroke="black"/>
<circle cx="207" cy="247.416" r="3.5" fill="#D9D9D9" stroke="black"/>
<circle cx="150.309" cy="323.23" r="3.5" fill="#D9D9D9" stroke="black"/>
<circle cx="207" cy="323.23" r="3.5" fill="#D9D9D9" stroke="black"/>
<rect x="75.5" y="126.73" width="28" height="35" rx="4.5" stroke="black"/>
<circle cx="2.5" cy="2.5" r="2" transform="matrix(1 0 0 -1 79 135.23)" fill="#BEBEBE" stroke="black"/>
<circle cx="2.5" cy="2.5" r="2" transform="matrix(1 0 0 -1 79 157.23)" fill="#BEBEBE" stroke="black"/>
<circle cx="2.5" cy="2.5" r="2" transform="matrix(1 0 0 -1 95 135.23)" fill="#BEBEBE" stroke="black"/>
<circle cx="2.5" cy="2.5" r="2" transform="matrix(1 0 0 -1 95 157.23)" fill="#BEBEBE" stroke="black"/>
<path d="M71.8727 359.405C71.8727 362.506 69.7156 364.891 67.2028 364.891C64.69 364.891 62.533 362.506 62.533 359.405C62.533 356.303 64.69 353.919 67.2028 353.919C69.7156 353.919 71.8727 356.303 71.8727 359.405Z" fill="#D9D9D9" stroke="black"/>
<ellipse cx="185.573" cy="158.23" rx="49.41" ry="15.0205" transform="rotate(-0.459039 185.573 158.23)" fill="black"/>
<path d="M152.834 67.2322C151.362 66.1184 151.042 63.9883 152.1 62.3462V62.3462C153.277 60.5198 155.677 60.0187 157.315 61.2575L164.215 66.478C166.469 68.183 169.773 67.4933 171.392 64.9796L188.521 38.3967C189.698 36.5703 192.098 36.0692 193.735 37.308V37.308C195.208 38.4218 195.528 40.5519 194.47 42.194L172.98 75.545C171.36 78.0587 168.057 78.7484 165.803 77.0434L152.834 67.2322Z" fill="#36D145"/>
</svg>
