<svg width="400" height="400" viewBox="0 0 400 400" fill="none" xmlns="http://www.w3.org/2000/svg">
<rect x="139.809" y="187.708" width="13.1491" height="58.3174" rx="6.57455" fill="#D9D9D9" stroke="black"/>
<path d="M262.885 236.458C262.885 241.755 258.711 246.026 253.59 246.026C248.469 246.026 244.294 241.755 244.294 236.458C244.294 231.161 248.469 226.891 253.59 226.891C258.711 226.891 262.885 231.161 262.885 236.458Z" fill="#D9D9D9" stroke="black"/>
<rect x="72.5" y="204.5" width="146.477" height="160.082" rx="19.5" fill="#BEBEBE" stroke="black"/>
<rect x="37.5707" y="298.889" width="18.3621" height="63.7895" rx="9.18105" transform="rotate(-8.8173 37.5707 298.889)" fill="#D9D9D9" stroke="black"/>
<path d="M159.488 186.936C159.488 194.005 153.518 199.769 146.111 199.769C138.704 199.769 132.734 194.005 132.734 186.936C132.734 179.868 138.704 174.104 146.111 174.104C153.518 174.104 159.488 179.868 159.488 186.936Z" fill="#D9D9D9" stroke="black"/>
<rect x="72.5" y="102.5" width="75.1874" height="84.4388" rx="19.5" fill="#BEBEBE" stroke="black"/>
<rect x="107.113" y="102.77" width="145.477" height="83.4388" rx="19" fill="#D9D9D9" stroke="black" stroke-width="2"/>
<rect x="120.262" y="107.212" width="128.43" height="74.5548" rx="20" fill="black"/>
<rect x="297.928" y="192.7" width="4.43129" height="57.7445" rx="2.21565" transform="rotate(48.1725 297.928 192.7)" fill="#D9D9D9" stroke="black"/>
<rect x="322.347" y="126.348" width="18.1751" height="63.1639" rx="9.08757" transform="rotate(25.9143 322.347 126.348)" fill="#D9D9D9" stroke="black"/>
<path d="M310.821 189.568C310.821 194.812 306.689 199.039 301.62 199.039C296.551 199.039 292.419 194.812 292.419 189.568C292.419 184.325 296.551 180.098 301.62 180.098C306.689 180.098 310.821 184.325 310.821 189.568Z" fill="#D9D9D9" stroke="black"/>
<rect x="321.078" y="113.682" width="3.99044" height="11.1578" rx="1.99522" transform="rotate(-12.3793 321.078 113.682)" fill="#D9D9D9" stroke="black"/>
<rect x="331.784" y="106.355" width="3.99044" height="15.5189" rx="1.99522" transform="rotate(11.7671 331.784 106.355)" fill="#D9D9D9" stroke="black"/>
<rect x="340.403" y="108.049" width="3.99044" height="15.5189" rx="1.99522" transform="rotate(30.3984 340.403 108.049)" fill="#D9D9D9" stroke="black"/>
<rect x="347.324" y="113.812" width="3.99044" height="15.5189" rx="1.99522" transform="rotate(49.3066 347.324 113.812)" fill="#D9D9D9" stroke="black"/>
<path d="M339.924 127.59C339.924 132.834 335.792 137.061 330.723 137.061C325.654 137.061 321.522 132.834 321.522 127.59C321.522 122.347 325.654 118.12 330.723 118.12C335.792 118.12 339.924 122.347 339.924 127.59Z" fill="#D9D9D9" stroke="black"/>
<path d="M262.885 236.458C262.885 241.755 258.711 246.026 253.59 246.026C248.469 246.026 244.294 241.755 244.294 236.458C244.294 231.161 248.469 226.891 253.59 226.891C258.711 226.891 262.885 231.161 262.885 236.458Z" fill="#D9D9D9" stroke="black"/>
<rect x="107.113" y="205.079" width="145.477" height="159.082" rx="19" fill="#D9D9D9" stroke="black" stroke-width="2"/>
<ellipse cx="156.941" cy="141.097" rx="19.9408" ry="22.0966" fill="#36ACD1"/>
<ellipse cx="156.941" cy="147.025" rx="19.9408" ry="22.0966" fill="black"/>
<ellipse cx="211.913" cy="141.097" rx="19.9408" ry="22.0966" fill="#36ACD1"/>
<ellipse cx="211.913" cy="147.025" rx="19.9408" ry="22.0966" fill="black"/>
<rect x="76.5913" y="239.046" width="4.48425" height="58.3174" rx="2.24212" transform="rotate(29.9481 76.5913 239.046)" fill="#D9D9D9" stroke="black"/>
<path d="M89.2869 238.091C89.2869 243.388 85.1123 247.659 79.9913 247.659C74.8704 247.659 70.6958 243.388 70.6958 238.091C70.6958 232.794 74.8704 228.523 79.9913 228.523C85.1123 228.523 89.2869 232.794 89.2869 238.091Z" fill="#D9D9D9" stroke="black"/>
<path d="M56.0911 294.687C56.0911 299.984 51.9165 304.255 46.7955 304.255C41.6746 304.255 37.5 299.984 37.5 294.687C37.5 289.39 41.6746 285.12 46.7955 285.12C51.9165 285.12 56.0911 289.39 56.0911 294.687Z" fill="#D9D9D9" stroke="black"/>
<path d="M69.6959 360.263C69.6959 367.81 63.6977 373.912 56.3189 373.912C48.9401 373.912 42.9419 367.81 42.9419 360.263C42.9419 352.715 48.9401 346.614 56.3189 346.614C63.6977 346.614 69.6959 352.715 69.6959 360.263Z" fill="#D9D9D9" stroke="black"/>
<rect x="139.809" y="236.686" width="77.3642" height="96.9553" rx="9.5" stroke="black"/>
<circle cx="150.309" cy="247.186" r="3.5" fill="#D9D9D9" stroke="black"/>
<circle cx="207" cy="247.186" r="3.5" fill="#D9D9D9" stroke="black"/>
<circle cx="150.309" cy="323" r="3.5" fill="#D9D9D9" stroke="black"/>
<circle cx="207" cy="323" r="3.5" fill="#D9D9D9" stroke="black"/>
<rect x="75.5" y="126.5" width="28" height="35" rx="4.5" stroke="black"/>
<circle cx="2.5" cy="2.5" r="2" transform="matrix(1 0 0 -1 79 135)" fill="#BEBEBE" stroke="black"/>
<circle cx="2.5" cy="2.5" r="2" transform="matrix(1 0 0 -1 79 157)" fill="#BEBEBE" stroke="black"/>
<circle cx="2.5" cy="2.5" r="2" transform="matrix(1 0 0 -1 95 135)" fill="#BEBEBE" stroke="black"/>
<circle cx="2.5" cy="2.5" r="2" transform="matrix(1 0 0 -1 95 157)" fill="#BEBEBE" stroke="black"/>
<path d="M71.8727 359.175C71.8727 362.276 69.7156 364.661 67.2028 364.661C64.69 364.661 62.533 362.276 62.533 359.175C62.533 356.073 64.69 353.688 67.2028 353.688C69.7156 353.688 71.8727 356.073 71.8727 359.175Z" fill="#D9D9D9" stroke="black"/>
<path d="M185.269 30.8344C173.461 30.8344 169.122 42.9012 169.122 42.9012C169.122 42.9012 164.843 30.8344 152.954 30.8344C144.018 30.8344 133.832 37.916 137.594 54.0142C141.356 70.1124 169.154 90.1663 169.154 90.1663C169.154 90.1663 196.851 70.1124 200.618 54.0142C204.38 37.916 194.927 30.8344 185.269 30.8344Z" fill="#FF94BD"/>
<path d="M151.132 32.0362C160.402 32.0362 165.005 42.0012 166.492 46.0379C166.702 46.6145 167.505 46.6307 167.748 46.0702L169.106 42.8958C167.193 36.7843 161.933 30.8344 152.954 30.8344C149.235 30.8344 145.306 32.0631 142.25 34.6554C144.951 32.8823 148.114 32.0362 151.132 32.0362ZM185.269 30.8344C182.418 30.8344 180.003 31.6643 177.977 32.9093C179.4 32.3596 180.973 32.0362 182.72 32.0362C191.456 32.0362 199.276 38.6598 195.746 53.9711C192.717 67.1158 175.018 83.0631 169.613 89.1477C169.268 89.5358 169.149 90.161 169.149 90.161C169.149 90.161 196.845 70.107 200.612 54.0088C204.38 37.916 194.204 30.8344 185.269 30.8344Z" fill="#FF61A9"/>
<path d="M143.797 39.3765C145.818 36.8543 149.429 34.7685 152.49 37.1722C154.145 38.4711 153.423 41.1334 151.941 42.2544C149.785 43.8928 147.909 44.8791 146.594 47.4444C145.808 48.9858 145.333 50.6727 145.091 52.3919C144.994 53.071 144.104 53.2381 143.77 52.6398C141.496 48.6086 140.849 43.0575 143.797 39.3765ZM176.198 44.6797C175.25 44.6797 174.582 43.7635 174.927 42.8796C175.568 41.252 176.398 39.6783 177.395 38.2771C178.872 36.2075 181.679 35.0003 183.458 36.256C185.28 37.5387 185.042 40.1041 183.765 41.3436C181.022 44.0006 177.562 44.6797 176.198 44.6797Z" fill="#F9D2E1"/>
</svg>
