<svg width="400" height="400" viewBox="0 0 400 400" fill="none" xmlns="http://www.w3.org/2000/svg">
<rect x="140.809" y="187.939" width="13.1491" height="58.3174" rx="6.57455" fill="#D9D9D9" stroke="black"/>
<path d="M263.885 236.688C263.885 241.986 259.711 246.256 254.59 246.256C249.469 246.256 245.294 241.986 245.294 236.688C245.294 231.391 249.469 227.121 254.59 227.121C259.711 227.121 263.885 231.391 263.885 236.688Z" fill="#D9D9D9" stroke="black"/>
<rect x="73.5" y="204.73" width="146.477" height="160.082" rx="19.5" fill="#BEBEBE" stroke="black"/>
<rect x="38.5707" y="299.119" width="18.3621" height="63.7895" rx="9.18105" transform="rotate(-8.8173 38.5707 299.119)" fill="#D9D9D9" stroke="black"/>
<path d="M160.488 187.167C160.488 194.235 154.518 199.999 147.111 199.999C139.704 199.999 133.734 194.235 133.734 187.167C133.734 180.098 139.704 174.334 147.111 174.334C154.518 174.334 160.488 180.098 160.488 187.167Z" fill="#D9D9D9" stroke="black"/>
<rect x="73.5" y="102.73" width="75.1874" height="84.4388" rx="19.5" fill="#BEBEBE" stroke="black"/>
<rect x="108.113" y="103" width="145.477" height="83.4388" rx="19" fill="#D9D9D9" stroke="black" stroke-width="2"/>
<rect x="121.262" y="107.442" width="128.43" height="74.5548" rx="20" fill="black"/>
<rect x="367.538" y="237.676" width="4.02723" height="15.418" rx="2.01362" transform="rotate(-3.85115 367.538 237.676)" fill="#D9D9D9" stroke="black"/>
<rect x="370.5" y="242.527" width="4.02723" height="15.418" rx="2.01362" transform="rotate(-90 370.5 242.527)" fill="#D9D9D9" stroke="black"/>
<rect x="370.5" y="237.527" width="4.02723" height="15.418" rx="2.01362" transform="rotate(-90 370.5 237.527)" fill="#D9D9D9" stroke="black"/>
<rect x="370.5" y="232.527" width="4.02723" height="15.418" rx="2.01362" transform="rotate(-90 370.5 232.527)" fill="#D9D9D9" stroke="black"/>
<rect x="314.946" y="237.038" width="4.47133" height="58.1777" rx="2.23567" transform="rotate(90.2034 314.946 237.038)" fill="#D9D9D9" stroke="black"/>
<rect x="374.791" y="227.441" width="18.3165" height="63.6369" rx="9.15825" transform="rotate(90.3426 374.791 227.441)" fill="#D9D9D9" stroke="black"/>
<path d="M263.352 236.602C263.352 241.885 259.188 246.145 254.08 246.145C248.971 246.145 244.807 241.885 244.807 236.602C244.807 231.318 248.971 227.058 254.08 227.058C259.188 227.058 263.352 231.318 263.352 236.602Z" fill="#D9D9D9" stroke="black"/>
<path d="M320.901 236.059C320.901 241.343 316.737 245.603 311.629 245.603C306.521 245.603 302.356 241.343 302.356 236.059C302.356 230.775 306.521 226.515 311.629 226.515C316.737 226.515 320.901 230.775 320.901 236.059Z" fill="#D9D9D9" stroke="black"/>
<rect x="108.113" y="205.309" width="145.477" height="159.082" rx="19" fill="#D9D9D9" stroke="black" stroke-width="2"/>
<rect x="77.5913" y="239.276" width="4.48425" height="58.3174" rx="2.24212" transform="rotate(29.9481 77.5913 239.276)" fill="#D9D9D9" stroke="black"/>
<path d="M90.2869 238.321C90.2869 243.618 86.1123 247.889 80.9913 247.889C75.8704 247.889 71.6958 243.618 71.6958 238.321C71.6958 233.024 75.8704 228.754 80.9913 228.754C86.1123 228.754 90.2869 233.024 90.2869 238.321Z" fill="#D9D9D9" stroke="black"/>
<path d="M57.0911 294.917C57.0911 300.214 52.9165 304.485 47.7955 304.485C42.6746 304.485 38.5 300.214 38.5 294.917C38.5 289.62 42.6746 285.35 47.7955 285.35C52.9165 285.35 57.0911 289.62 57.0911 294.917Z" fill="#D9D9D9" stroke="black"/>
<path d="M70.6959 360.493C70.6959 368.04 64.6977 374.142 57.3189 374.142C49.9401 374.142 43.9419 368.04 43.9419 360.493C43.9419 352.946 49.9401 346.844 57.3189 346.844C64.6977 346.844 70.6959 352.946 70.6959 360.493Z" fill="#D9D9D9" stroke="black"/>
<rect x="140.809" y="236.916" width="77.3642" height="96.9553" rx="9.5" stroke="black"/>
<circle cx="151.309" cy="247.416" r="3.5" fill="#D9D9D9" stroke="black"/>
<circle cx="208" cy="247.416" r="3.5" fill="#D9D9D9" stroke="black"/>
<circle cx="151.309" cy="323.23" r="3.5" fill="#D9D9D9" stroke="black"/>
<circle cx="208" cy="323.23" r="3.5" fill="#D9D9D9" stroke="black"/>
<rect x="76.5" y="126.73" width="28" height="35" rx="4.5" stroke="black"/>
<circle cx="2.5" cy="2.5" r="2" transform="matrix(1 0 0 -1 80 135.23)" fill="#BEBEBE" stroke="black"/>
<circle cx="2.5" cy="2.5" r="2" transform="matrix(1 0 0 -1 80 157.23)" fill="#BEBEBE" stroke="black"/>
<circle cx="2.5" cy="2.5" r="2" transform="matrix(1 0 0 -1 96 135.23)" fill="#BEBEBE" stroke="black"/>
<circle cx="2.5" cy="2.5" r="2" transform="matrix(1 0 0 -1 96 157.23)" fill="#BEBEBE" stroke="black"/>
<path d="M72.8727 359.405C72.8727 362.506 70.7156 364.891 68.2028 364.891C65.69 364.891 63.533 362.506 63.533 359.405C63.533 356.303 65.69 353.919 68.2028 353.919C70.7156 353.919 72.8727 356.303 72.8727 359.405Z" fill="#D9D9D9" stroke="black"/>
<ellipse cx="157.717" cy="148.634" rx="20.0878" ry="22.2595" fill="#D13636"/>
<ellipse cx="213.094" cy="148.634" rx="20.0878" ry="22.2595" fill="#D13636"/>
<ellipse cx="185.412" cy="133.61" rx="49.2936" ry="14.9851" transform="rotate(-0.459039 185.412 133.61)" fill="black"/>
<path d="M179.408 58.5858C178.625 59.3665 178.624 60.6344 179.406 61.4162L191.543 73.554C192.324 74.335 192.324 75.6014 191.543 76.3824L185.382 82.5434C184.601 83.3244 183.335 83.3244 182.554 82.5434L170.414 70.4036C169.633 69.6226 168.367 69.6226 167.586 70.4036L155.404 82.5858C154.623 83.3668 153.356 83.3668 152.575 82.5858L146.414 76.4248C145.633 75.6438 145.633 74.3774 146.414 73.5964L158.596 61.4142C159.377 60.6332 159.377 59.3668 158.596 58.5858L146.414 46.4036C145.633 45.6226 145.633 44.3562 146.414 43.5752L152.575 37.4142C153.356 36.6332 154.623 36.6332 155.404 37.4142L167.588 49.5984C168.368 50.3787 169.633 50.3795 170.414 49.6004L182.596 37.4526C183.378 36.6735 184.643 36.6743 185.423 37.4546L191.584 43.6156C192.366 44.3974 192.365 45.6653 191.582 46.446L179.408 58.5858Z" fill="#D13636"/>
</svg>
