<svg width="400" height="400" viewBox="0 0 400 400" fill="none" xmlns="http://www.w3.org/2000/svg">
<path d="M198.594 37.6407C189.531 38.1875 184.766 43.3438 184.375 52.6406H193.516C193.594 49.4375 195.469 47.0157 198.75 46.625C202.031 46.3125 205.156 47.0938 206.094 49.2813C207.109 51.7032 204.844 54.5157 203.75 55.6875C201.719 57.875 198.437 59.5156 196.719 61.8594C195.078 64.2031 194.766 67.25 194.609 71H202.656C202.734 68.5781 202.891 66.3125 203.984 64.8282C205.781 62.4063 208.437 61.3125 210.625 59.3594C212.734 57.5625 215 55.375 215.312 51.9375C216.641 41.8594 208.359 37.0157 198.594 37.6407Z" fill="#36ACD1"/>
<path d="M198.828 84.4375C201.633 84.4375 203.906 82.1989 203.906 79.4375C203.906 76.6761 201.633 74.4375 198.828 74.4375C196.024 74.4375 193.75 76.6761 193.75 79.4375C193.75 82.1989 196.024 84.4375 198.828 84.4375Z" fill="#36ACD1"/>
<rect x="321.112" y="177.21" width="17.9868" height="62.5338" rx="8.99341" transform="rotate(-7.60147 321.112 177.21)" fill="#D9D9D9" stroke="black"/>
<rect x="338.814" y="241.43" width="4.37795" height="57.1677" rx="2.18898" transform="rotate(69.2898 338.814 241.43)" fill="#D9D9D9" stroke="black"/>
<path d="M345.688 237.901C348.554 242.227 347.454 247.973 343.272 250.743C339.09 253.513 333.37 252.283 330.505 247.957C327.639 243.63 328.739 237.884 332.921 235.115C337.103 232.345 342.823 233.574 345.688 237.901Z" fill="#D9D9D9" stroke="black"/>
<path d="M288.052 258.151C290.917 262.477 289.817 268.223 285.635 270.993C281.453 273.762 275.733 272.533 272.868 268.206C270.003 263.88 271.103 258.134 275.285 255.364C279.467 252.595 285.186 253.824 288.052 258.151Z" fill="#D9D9D9" stroke="black"/>
<rect x="357.721" y="171.546" width="4.37795" height="34.3347" rx="2.18898" transform="rotate(84.4738 357.721 171.546)" fill="#D9D9D9" stroke="black"/>
<rect x="169.809" y="187.939" width="13.1491" height="58.3174" rx="6.57455" fill="#D9D9D9" stroke="black"/>
<rect x="102.5" y="204.73" width="146.477" height="160.082" rx="19.5" fill="#BEBEBE" stroke="black"/>
<path d="M189.488 187.167C189.488 194.235 183.518 199.999 176.111 199.999C168.704 199.999 162.734 194.235 162.734 187.167C162.734 180.098 168.704 174.334 176.111 174.334C183.518 174.334 189.488 180.098 189.488 187.167Z" fill="#D9D9D9" stroke="black"/>
<rect x="102.5" y="102.73" width="75.1874" height="84.4388" rx="19.5" fill="#BEBEBE" stroke="black"/>
<rect x="137.113" y="103" width="145.477" height="83.4388" rx="19" fill="#D9D9D9" stroke="black" stroke-width="2"/>
<rect x="150.262" y="107.442" width="128.43" height="74.5548" rx="20" fill="black"/>
<rect x="137.113" y="205.309" width="145.477" height="159.082" rx="19" fill="#D9D9D9" stroke="black" stroke-width="2"/>
<rect x="169.809" y="236.916" width="77.3642" height="96.9553" rx="9.5" stroke="black"/>
<circle cx="180.309" cy="247.416" r="3.5" fill="#D9D9D9" stroke="black"/>
<circle cx="237" cy="247.416" r="3.5" fill="#D9D9D9" stroke="black"/>
<circle cx="180.309" cy="323.23" r="3.5" fill="#D9D9D9" stroke="black"/>
<circle cx="237" cy="323.23" r="3.5" fill="#D9D9D9" stroke="black"/>
<rect x="105.5" y="126.73" width="28" height="35" rx="4.5" stroke="black"/>
<circle cx="2.5" cy="2.5" r="2" transform="matrix(1 0 0 -1 109 135.23)" fill="#BEBEBE" stroke="black"/>
<circle cx="2.5" cy="2.5" r="2" transform="matrix(1 0 0 -1 109 157.23)" fill="#BEBEBE" stroke="black"/>
<circle cx="2.5" cy="2.5" r="2" transform="matrix(1 0 0 -1 125 135.23)" fill="#BEBEBE" stroke="black"/>
<circle cx="2.5" cy="2.5" r="2" transform="matrix(1 0 0 -1 125 157.23)" fill="#BEBEBE" stroke="black"/>
<ellipse cx="187.884" cy="142.351" rx="19.745" ry="21.8796" fill="#36ACD1"/>
<ellipse cx="242.316" cy="142.351" rx="19.745" ry="21.8796" fill="#36ACD1"/>
<rect x="158" y="113" width="112.6" height="29.3507" fill="black"/>
<rect x="158" y="147.153" width="112.6" height="29.3507" fill="black"/>
<rect x="-0.561747" y="0.429465" width="17.9868" height="62.5338" rx="8.99341" transform="matrix(-0.991212 -0.132282 -0.132282 0.991212 79.0759 176.733)" fill="#D9D9D9" stroke="black"/>
<rect x="0.290869" y="0.644511" width="4.37795" height="57.1677" rx="2.18898" transform="matrix(-0.353642 0.935381 0.935381 0.353642 61.3746 240.952)" fill="#D9D9D9" stroke="black"/>
<path d="M54.9997 237.924C52.1344 242.25 53.2342 247.996 57.4163 250.766C61.5984 253.535 67.3178 252.306 70.1831 247.979C73.0485 243.653 71.9487 237.907 67.7666 235.137C63.5845 232.368 57.8651 233.597 54.9997 237.924Z" fill="#D9D9D9" stroke="black"/>
<path d="M112.636 258.173C109.771 262.5 110.871 268.245 115.053 271.015C119.235 273.785 124.955 272.555 127.82 268.229C130.685 263.902 129.585 258.157 125.403 255.387C121.221 252.617 115.502 253.847 112.636 258.173Z" fill="#D9D9D9" stroke="black"/>
<rect x="0.449526" y="0.545826" width="4.37795" height="34.3347" rx="2.18898" transform="matrix(-0.0963003 0.995352 0.995352 0.0963003 42.4673 171.068)" fill="#D9D9D9" stroke="black"/>
</svg>
